<svg width="473" height="430" viewBox="0 0 473 430" fill="none" xmlns="http://www.w3.org/2000/svg">
<circle cx="3.52358" cy="426.24" r="3.52358" transform="rotate(-90 3.52358 426.24)" fill="#70C217"/>
<circle cx="3.52358" cy="374.561" r="3.52358" transform="rotate(-90 3.52358 374.561)" fill="#70C217"/>
<circle cx="3.52358" cy="322.882" r="3.52358" transform="rotate(-90 3.52358 322.882)" fill="#70C217"/>
<circle cx="3.52358" cy="271.203" r="3.52358" transform="rotate(-90 3.52358 271.203)" fill="#70C217"/>
<circle cx="3.52358" cy="219.524" r="3.52358" transform="rotate(-90 3.52358 219.524)" fill="#70C217"/>
<circle cx="55.2028" cy="426.241" r="3.52358" transform="rotate(-90 55.2028 426.241)" fill="#70C217"/>
<circle cx="55.2028" cy="374.561" r="3.52358" transform="rotate(-90 55.2028 374.561)" fill="#70C217"/>
<circle cx="55.2028" cy="322.882" r="3.52358" transform="rotate(-90 55.2028 322.882)" fill="#70C217"/>
<circle cx="55.2028" cy="271.203" r="3.52358" transform="rotate(-90 55.2028 271.203)" fill="#70C217"/>
<circle cx="55.2028" cy="219.524" r="3.52358" transform="rotate(-90 55.2028 219.524)" fill="#70C217"/>
<circle cx="106.882" cy="426.241" r="3.52358" transform="rotate(-90 106.882 426.241)" fill="#70C217"/>
<circle cx="106.882" cy="374.561" r="3.52358" transform="rotate(-90 106.882 374.561)" fill="#70C217"/>
<circle cx="106.882" cy="322.882" r="3.52358" transform="rotate(-90 106.882 322.882)" fill="#70C217"/>
<circle cx="106.882" cy="271.203" r="3.52358" transform="rotate(-90 106.882 271.203)" fill="#70C217"/>
<circle cx="106.882" cy="219.524" r="3.52358" transform="rotate(-90 106.882 219.524)" fill="#70C217"/>
<circle cx="158.561" cy="426.241" r="3.52358" transform="rotate(-90 158.561 426.241)" fill="#70C217"/>
<circle cx="158.561" cy="374.561" r="3.52358" transform="rotate(-90 158.561 374.561)" fill="#70C217"/>
<circle cx="158.561" cy="322.882" r="3.52358" transform="rotate(-90 158.561 322.882)" fill="#70C217"/>
<circle cx="158.561" cy="271.203" r="3.52358" transform="rotate(-90 158.561 271.203)" fill="#70C217"/>
<circle cx="158.561" cy="219.524" r="3.52358" transform="rotate(-90 158.561 219.524)" fill="#70C217"/>
<circle cx="210.24" cy="426.241" r="3.52358" transform="rotate(-90 210.24 426.241)" fill="#70C217"/>
<circle cx="210.24" cy="374.561" r="3.52358" transform="rotate(-90 210.24 374.561)" fill="#70C217"/>
<circle cx="210.24" cy="322.882" r="3.52358" transform="rotate(-90 210.24 322.882)" fill="#70C217"/>
<circle cx="210.24" cy="271.203" r="3.52358" transform="rotate(-90 210.24 271.203)" fill="#70C217"/>
<circle cx="210.24" cy="219.524" r="3.52358" transform="rotate(-90 210.24 219.524)" fill="#70C217"/>
<circle cx="261.92" cy="426.241" r="3.52358" transform="rotate(-90 261.92 426.241)" fill="#70C217"/>
<circle cx="261.92" cy="374.561" r="3.52358" transform="rotate(-90 261.92 374.561)" fill="#70C217"/>
<circle cx="261.92" cy="322.882" r="3.52358" transform="rotate(-90 261.92 322.882)" fill="#70C217"/>
<circle cx="261.92" cy="271.203" r="3.52358" transform="rotate(-90 261.92 271.203)" fill="#70C217"/>
<circle cx="261.92" cy="219.524" r="3.52358" transform="rotate(-90 261.92 219.524)" fill="#70C217"/>
<circle cx="313.599" cy="426.241" r="3.52358" transform="rotate(-90 313.599 426.241)" fill="#70C217"/>
<circle cx="313.599" cy="374.561" r="3.52358" transform="rotate(-90 313.599 374.561)" fill="#70C217"/>
<circle cx="313.599" cy="322.882" r="3.52358" transform="rotate(-90 313.599 322.882)" fill="#70C217"/>
<circle cx="313.599" cy="271.203" r="3.52358" transform="rotate(-90 313.599 271.203)" fill="#70C217"/>
<circle cx="313.599" cy="219.524" r="3.52358" transform="rotate(-90 313.599 219.524)" fill="#70C217"/>
<circle cx="365.278" cy="426.241" r="3.52358" transform="rotate(-90 365.278 426.241)" fill="#70C217"/>
<circle cx="365.278" cy="374.561" r="3.52358" transform="rotate(-90 365.278 374.561)" fill="#70C217"/>
<circle cx="365.278" cy="322.882" r="3.52358" transform="rotate(-90 365.278 322.882)" fill="#70C217"/>
<circle cx="365.278" cy="271.203" r="3.52358" transform="rotate(-90 365.278 271.203)" fill="#70C217"/>
<circle cx="365.278" cy="219.524" r="3.52358" transform="rotate(-90 365.278 219.524)" fill="#70C217"/>
<circle cx="416.957" cy="426.241" r="3.52358" transform="rotate(-90 416.957 426.241)" fill="#70C217"/>
<circle cx="416.957" cy="374.561" r="3.52358" transform="rotate(-90 416.957 374.561)" fill="#70C217"/>
<circle cx="416.957" cy="322.882" r="3.52358" transform="rotate(-90 416.957 322.882)" fill="#70C217"/>
<circle cx="416.957" cy="271.203" r="3.52358" transform="rotate(-90 416.957 271.203)" fill="#70C217"/>
<circle cx="416.957" cy="219.524" r="3.52358" transform="rotate(-90 416.957 219.524)" fill="#70C217"/>
<circle cx="468.636" cy="426.241" r="3.52358" transform="rotate(-90 468.636 426.241)" fill="#70C217"/>
<circle cx="468.636" cy="374.561" r="3.52358" transform="rotate(-90 468.636 374.561)" fill="#70C217"/>
<circle cx="468.636" cy="322.882" r="3.52358" transform="rotate(-90 468.636 322.882)" fill="#70C217"/>
<circle cx="468.636" cy="271.203" r="3.52358" transform="rotate(-90 468.636 271.203)" fill="#70C217"/>
<circle cx="468.636" cy="219.524" r="3.52358" transform="rotate(-90 468.636 219.524)" fill="#70C217"/>
<circle cx="287" cy="131" r="128.5" stroke="#FFBA49" stroke-width="5"/>
</svg>
